M48
; DRILL file {KiCad (6.0.0)} date Wed Jan 19 00:59:08 2022
; FORMAT={-:-/ absolute / inch / decimal}
; #@! TF.CreationDate,2022-01-19T00:59:08+00:00
; #@! TF.GenerationSoftware,Kicad,Pcbnew,(6.0.0)
; #@! TF.FileFunction,Plated,1,2,PTH
FMAT,2
INCH
; #@! TA.AperFunction,Plated,PTH,ComponentDrill
T1C0.0295
; #@! TA.AperFunction,Plated,PTH,ComponentDrill
T2C0.0315
; #@! TA.AperFunction,Plated,PTH,ComponentDrill
T3C0.0354
; #@! TA.AperFunction,Plated,PTH,ComponentDrill
T4C0.0394
; #@! TA.AperFunction,Plated,PTH,ComponentDrill
T5C0.0472
%
G90
G05
T1
X4.5031Y-0.5921
X4.5031Y-0.6421
X4.5031Y-0.6921
X4.7441Y-0.9406
X4.7441Y-0.9906
X4.7441Y-1.0406
X4.972Y-1.1
X4.972Y-1.15
X4.972Y-1.2
X4.972Y-1.3563
X4.972Y-1.4063
X4.972Y-1.4563
X5.2Y-1.1
X5.2Y-1.15
X5.2Y-1.2
X5.2Y-1.3563
X5.2Y-1.4063
X5.2Y-1.4563
X5.4378Y-5.2665
X5.4878Y-5.2665
X5.5378Y-5.2665
X5.8335Y-4.6386
X5.8335Y-4.8665
X5.8835Y-4.6386
X5.8835Y-4.8665
X5.9335Y-4.6386
X5.9335Y-4.8665
X6.0898Y-4.6398
X6.1398Y-4.6398
X6.1898Y-4.6398
X6.8496Y-3.7291
X6.8496Y-3.9571
X6.8996Y-3.7291
X6.8996Y-3.9571
X6.9496Y-3.7291
X6.9496Y-3.9571
X7.1059Y-3.7291
X7.1559Y-3.7291
X7.2059Y-3.7291
X7.2689Y-3.4909
X7.3189Y-3.4909
X7.3689Y-3.4909
X7.5252Y-3.3094
X7.5752Y-3.3094
X7.6252Y-3.3094
T2
X1.2Y-0.8
X1.2Y-0.9
X1.2Y-1.0
X1.2Y-1.1
X1.2Y-1.2
X1.2Y-1.3
X1.2Y-1.4
X1.2Y-1.5
X1.3724Y-5.4839
X1.4724Y-5.4839
X1.5Y-0.8
X1.5Y-0.9
X1.5Y-1.0
X1.5Y-1.1
X1.5Y-1.2
X1.5Y-1.3
X1.5Y-1.4
X1.5Y-1.5
X1.6146Y-5.4839
X1.7146Y-5.4839
X1.9Y-0.8
X1.9Y-0.9
X1.9Y-1.0
X1.9Y-1.1
X1.9Y-1.2
X1.9Y-1.3
X1.9Y-1.4
X1.9Y-1.5
X2.2Y-0.8
X2.2Y-0.9
X2.2Y-1.0
X2.2Y-1.1
X2.2Y-1.2
X2.2Y-1.3
X2.2Y-1.4
X2.2Y-1.5
X2.7Y-0.8
X2.7Y-0.9
X2.7Y-1.0
X2.7Y-1.1
X2.7Y-1.2
X2.7Y-1.3
X2.7Y-1.4
X3.0Y-0.8
X3.0Y-0.9
X3.0Y-1.0
X3.0Y-1.1
X3.0Y-1.2
X3.0Y-1.3
X3.0Y-1.4
X3.5504Y-0.7506
X3.5504Y-0.8506
X3.5504Y-0.9506
X3.5504Y-1.0506
X3.5504Y-1.1506
X3.5504Y-1.2506
X3.5504Y-1.3506
X3.5504Y-1.4506
X3.7626Y-5.0657
X3.7626Y-5.2488
X3.8504Y-0.7506
X3.8504Y-0.8506
X3.8504Y-0.9506
X3.8504Y-1.0506
X3.8504Y-1.1506
X3.8504Y-1.2506
X3.8504Y-1.3506
X3.8504Y-1.4506
X4.0579Y-5.0657
X4.0579Y-5.2488
X5.1559Y-0.6961
X5.1559Y-0.8929
X5.4295Y-4.911
X5.6264Y-4.911
X5.7169Y-1.2846
X5.7169Y-1.5799
X5.7898Y-4.4189
X5.8567Y-4.1
X5.9Y-1.2394
X5.9Y-1.5346
X5.9256Y-1.6685
X5.9256Y-1.7685
X6.0535Y-4.1
X6.085Y-4.4189
X6.8335Y-3.5094
X7.1287Y-3.5094
X7.2173Y-2.9012
X7.2173Y-3.0843
X7.4555Y-2.4701
X7.5126Y-2.9012
X7.5126Y-3.0843
X7.5555Y-2.4701
T3
X4.2173Y-5.172
X4.3173Y-5.172
X4.7799Y-0.6646
X4.7799Y-0.7646
X5.4768Y-1.3201
X5.4768Y-1.4201
X5.4768Y-1.6154
X5.4768Y-1.7154
T4
X0.8Y-1.8
X0.8Y-1.9
X0.8Y-2.0
X0.8Y-2.1
X0.8Y-2.2
X0.8Y-2.3
X0.8Y-2.4
X0.8Y-2.5
X0.8Y-2.6
X0.8Y-2.7
X7.0638Y-2.9012
X7.0638Y-3.0012
X7.0638Y-3.1012
X7.0638Y-3.2012
T5
X0.7228Y-5.0311
X0.7228Y-5.2339
X0.7228Y-5.4366
X0.9059Y-3.0862
X1.15Y-3.289
X1.15Y-3.4917
X1.15Y-3.6945
X1.15Y-3.8972
X1.15Y-4.1
X1.15Y-4.3028
X1.15Y-4.5055
X1.15Y-4.7083
X1.2228Y-5.0311
X1.2228Y-5.2339
X1.2228Y-5.4366
X1.4059Y-3.0862
X1.65Y-3.289
X1.65Y-3.4917
X1.65Y-3.6945
X1.65Y-3.8972
X1.65Y-4.1
X1.65Y-4.3028
X1.65Y-4.5055
X1.65Y-4.7083
X1.9228Y-5.0677
X1.9228Y-5.2705
X1.9228Y-5.4732
X2.1059Y-3.1917
X2.3047Y-2.3807
X2.3047Y-2.5835
X2.3047Y-2.7862
X2.35Y-2.989
X2.35Y-3.3945
X2.35Y-3.5972
X2.35Y-3.8
X2.35Y-4.0028
X2.35Y-4.2055
X2.35Y-4.4083
X2.35Y-4.611
X2.35Y-4.8138
X2.4228Y-5.0677
X2.4228Y-5.2705
X2.4228Y-5.4732
X2.5783Y-5.0165
X2.5783Y-5.2193
X2.5783Y-5.422
X2.5783Y-5.6248
X2.6059Y-3.1917
X2.8047Y-2.3807
X2.8047Y-2.5835
X2.8047Y-2.7862
X2.85Y-2.989
X2.85Y-3.3945
X2.85Y-3.5972
X2.85Y-3.8
X2.85Y-4.0028
X2.85Y-4.2055
X2.85Y-4.4083
X2.85Y-4.611
X2.85Y-4.8138
X3.0783Y-5.0165
X3.0783Y-5.2193
X3.0783Y-5.422
X3.0783Y-5.6248
X3.4803Y-2.9209
X3.5047Y-2.0343
X3.5047Y-2.237
X3.5047Y-2.4398
X3.55Y-2.6425
X3.55Y-3.048
X3.55Y-3.2508
X3.55Y-3.4535
X3.55Y-3.6563
X3.55Y-3.8591
X3.55Y-4.0618
X3.55Y-4.2646
X3.55Y-4.4673
X3.7783Y-4.6701
X3.7783Y-4.8728
X3.9803Y-2.9209
X4.0047Y-2.0343
X4.0047Y-2.237
X4.0047Y-2.4398
X4.05Y-2.6425
X4.05Y-3.048
X4.05Y-3.2508
X4.05Y-3.4535
X4.05Y-3.6563
X4.05Y-3.8591
X4.05Y-4.0618
X4.05Y-4.2646
X4.05Y-4.4673
X4.1358Y-2.9209
X4.2783Y-4.6701
X4.2783Y-4.8728
X4.6047Y-2.1098
X4.6047Y-2.3126
X4.6358Y-2.9209
X4.65Y-2.5154
X4.65Y-2.7181
X4.65Y-3.1236
X4.65Y-3.3264
X4.65Y-3.5291
X4.65Y-3.7319
X4.65Y-3.9346
X4.65Y-4.1374
X4.65Y-4.3402
X4.65Y-4.5429
X5.1047Y-2.1098
X5.1047Y-2.3126
X5.15Y-2.5154
X5.15Y-2.7181
X5.15Y-3.1236
X5.15Y-3.3264
X5.15Y-3.5291
X5.15Y-3.7319
X5.15Y-3.9346
X5.15Y-4.1374
X5.15Y-4.3402
X5.15Y-4.5429
X5.4846Y-0.6449
X5.4846Y-1.1449
X5.5614Y-2.9602
X5.6874Y-0.6449
X5.6874Y-1.1449
X5.7602Y-2.1492
X5.8055Y-2.352
X5.8055Y-2.5547
X5.8055Y-2.7575
X5.8055Y-3.163
X5.8055Y-3.3657
X5.8055Y-3.5685
X5.8055Y-3.7713
X5.8902Y-0.5996
X5.8902Y-1.0996
X6.0614Y-2.9602
X6.2602Y-2.1492
X6.3055Y-2.352
X6.3055Y-2.5547
X6.3055Y-2.7575
X6.3055Y-3.163
X6.3055Y-3.3657
X6.3055Y-3.5685
X6.3055Y-3.7713
X6.8059Y-2.5055
X7.0047Y-1.6945
X7.05Y-1.8972
X7.05Y-2.1
X7.05Y-2.3028
X7.05Y-2.7083
X7.3059Y-2.5055
X7.5047Y-1.6945
X7.55Y-1.8972
X7.55Y-2.1
X7.55Y-2.3028
X7.55Y-2.7083
T0
M30
